{
    "asset": {
        "version": "2.0",
        "generator": "Open Asset Import Library (assimp v5.2.0)"
    },
    "extensionsUsed": [
        "KHR_materials_pbrSpecularGlossiness",
        "FB_ngon_encoding"
    ],
    "accessors": [
        {
            "bufferView": 0,
            "byteOffset": 0,
            "componentType": 5126,
            "count": 530,
            "type": "VEC3",
            "max": [
                30.0,
                0.5,
                10.0
            ],
            "min": [
                0.0,
                0.0,
                0.0
            ]
        },
        {
            "bufferView": 1,
            "byteOffset": 0,
            "componentType": 5126,
            "count": 530,
            "type": "VEC3",
            "max": [
                1.0,
                1.0,
                1.0
            ],
            "min": [
                -1.0,
                -1.0,
                -1.0
            ]
        },
        {
            "bufferView": 2,
            "byteOffset": 0,
            "componentType": 5126,
            "count": 530,
            "type": "VEC2",
            "max": [
                1181.1024169921876,
                1.0
            ],
            "min": [
                -1171.2598876953126,
                -392.7007751464844
            ]
        },
        {
            "bufferView": 3,
            "byteOffset": 0,
            "componentType": 5125,
            "count": 1170,
            "type": "SCALAR",
            "max": [
                529
            ],
            "min": [
                0
            ]
        },
        {
            "bufferView": 4,
            "byteOffset": 0,
            "componentType": 5126,
            "count": 16,
            "type": "VEC3",
            "max": [
                29.75,
                15.0,
                9.75
            ],
            "min": [
                0.25,
                0.5,
                0.0
            ]
        },
        {
            "bufferView": 5,
            "byteOffset": 0,
            "componentType": 5126,
            "count": 16,
            "type": "VEC3",
            "max": [
                1.0,
                0.8928809762001038,
                0.0
            ],
            "min": [
                -1.0,
                -0.9557790160179138,
                -1.0
            ]
        },
        {
            "bufferView": 6,
            "byteOffset": 0,
            "componentType": 5126,
            "count": 16,
            "type": "VEC2",
            "max": [
                29.75,
                5.411287784576416
            ],
            "min": [
                -29.75,
                -11.0
            ]
        },
        {
            "bufferView": 7,
            "byteOffset": 0,
            "componentType": 5125,
            "count": 24,
            "type": "SCALAR",
            "max": [
                15
            ],
            "min": [
                0
            ]
        },
        {
            "bufferView": 8,
            "byteOffset": 0,
            "componentType": 5126,
            "count": 72,
            "type": "VEC3",
            "max": [
                30.0,
                0.5,
                10.0
            ],
            "min": [
                0.25,
                0.0,
                0.0
            ]
        },
        {
            "bufferView": 9,
            "byteOffset": 0,
            "componentType": 5126,
            "count": 72,
            "type": "VEC3",
            "max": [
                1.0,
                3.549397968328474e-15,
                2.212846298247805e-30
            ],
            "min": [
                -1.0,
                0.0,
                -1.0
            ]
        },
        {
            "bufferView": 10,
            "byteOffset": 0,
            "componentType": 5126,
            "count": 72,
            "type": "VEC2",
            "max": [
                19.685039520263673,
                1.0
            ],
            "min": [
                -1181.1024169921876,
                -392.7007751464844
            ]
        },
        {
            "bufferView": 11,
            "byteOffset": 0,
            "componentType": 5125,
            "count": 198,
            "type": "SCALAR",
            "max": [
                71
            ],
            "min": [
                0
            ]
        }
    ],
    "buffers": [
        {
            "byteLength": 25344,
            "uri": "9c6f9b90-9bc9-4353-b1e6-4c6a1415231d.bin"
        }
    ],
    "bufferViews": [
        {
            "buffer": 0,
            "byteOffset": 0,
            "byteLength": 6360,
            "target": 34962
        },
        {
            "buffer": 0,
            "byteOffset": 6360,
            "byteLength": 6360,
            "target": 34962
        },
        {
            "buffer": 0,
            "byteOffset": 12720,
            "byteLength": 4240,
            "target": 34962
        },
        {
            "buffer": 0,
            "byteOffset": 16960,
            "byteLength": 4680,
            "target": 34963
        },
        {
            "buffer": 0,
            "byteOffset": 21640,
            "byteLength": 192,
            "target": 34962
        },
        {
            "buffer": 0,
            "byteOffset": 21832,
            "byteLength": 192,
            "target": 34962
        },
        {
            "buffer": 0,
            "byteOffset": 22024,
            "byteLength": 128,
            "target": 34962
        },
        {
            "buffer": 0,
            "byteOffset": 22152,
            "byteLength": 96,
            "target": 34963
        },
        {
            "buffer": 0,
            "byteOffset": 22248,
            "byteLength": 864,
            "target": 34962
        },
        {
            "buffer": 0,
            "byteOffset": 23112,
            "byteLength": 864,
            "target": 34962
        },
        {
            "buffer": 0,
            "byteOffset": 23976,
            "byteLength": 576,
            "target": 34962
        },
        {
            "buffer": 0,
            "byteOffset": 24552,
            "byteLength": 792,
            "target": 34963
        }
    ],
    "images": [
        {
            "uri": "..\\..\\..\\Documents\\Goal\\Filet.png"
        }
    ],
    "materials": [
        {
            "name": "Bars",
            "pbrMetallicRoughness": {
                "baseColorFactor": [
                    0.9686274528503418,
                    0.9686274528503418,
                    0.9686274528503418,
                    1.0
                ],
                "metallicFactor": 0.0,
                "roughnessFactor": 0.5527864098548889
            },
            "extensions": {
                "KHR_materials_pbrSpecularGlossiness": {
                    "diffuseFactor": [
                        0.9686274528503418,
                        0.9686274528503418,
                        0.9686274528503418,
                        1.0
                    ],
                    "specularFactor": [
                        0.33000001311302187,
                        0.33000001311302187,
                        0.33000001311302187
                    ],
                    "glossinessFactor": 0.4472135901451111
                }
            }
        },
        {
            "name": "Filet",
            "pbrMetallicRoughness": {
                "baseColorTexture": {
                    "index": 0
                },
                "baseColorFactor": [
                    0.0,
                    0.0,
                    0.0,
                    1.0
                ],
                "metallicFactor": 0.0,
                "roughnessFactor": 0.5527864098548889
            },
            "extensions": {
                "KHR_materials_pbrSpecularGlossiness": {
                    "diffuseFactor": [
                        0.0,
                        0.0,
                        0.0,
                        1.0
                    ],
                    "specularFactor": [
                        0.33000001311302187,
                        0.33000001311302187,
                        0.33000001311302187
                    ],
                    "glossinessFactor": 0.4472135901451111,
                    "diffuseTexture": {
                        "index": 0
                    }
                }
            }
        },
        {
            "name": "FrontColor",
            "pbrMetallicRoughness": {
                "metallicFactor": 0.0,
                "roughnessFactor": 0.5527864098548889
            },
            "extensions": {
                "KHR_materials_pbrSpecularGlossiness": {
                    "specularFactor": [
                        0.33000001311302187,
                        0.33000001311302187,
                        0.33000001311302187
                    ],
                    "glossinessFactor": 0.4472135901451111
                }
            }
        }
    ],
    "meshes": [
        {
            "name": "Mesh1",
            "primitives": [
                {
                    "extensions": {
                        "FB_ngon_encoding": {}
                    },
                    "mode": 4,
                    "material": 0,
                    "indices": 3,
                    "attributes": {
                        "POSITION": 0,
                        "NORMAL": 1,
                        "TEXCOORD_0": 2
                    }
                },
                {
                    "extensions": {
                        "FB_ngon_encoding": {}
                    },
                    "mode": 4,
                    "material": 1,
                    "indices": 7,
                    "attributes": {
                        "POSITION": 4,
                        "NORMAL": 5,
                        "TEXCOORD_0": 6
                    }
                },
                {
                    "extensions": {
                        "FB_ngon_encoding": {}
                    },
                    "mode": 4,
                    "material": 2,
                    "indices": 11,
                    "attributes": {
                        "POSITION": 8,
                        "NORMAL": 9,
                        "TEXCOORD_0": 10
                    }
                }
            ]
        }
    ],
    "nodes": [
        {
            "name": "RootNode",
            "children": [
                1
            ]
        },
        {
            "name": "Model",
            "children": [
                2
            ]
        },
        {
            "name": "Goal",
            "children": [
                3
            ]
        },
        {
            "name": "Mesh1",
            "mesh": 0
        }
    ],
    "samplers": [
        {}
    ],
    "scenes": [
        {
            "nodes": [
                0
            ]
        }
    ],
    "textures": [
        {
            "source": 0,
            "sampler": 0
        }
    ],
    "scene": 0
}